<svg width="767" height="1024" viewBox="0 0 767 1024" fill="none" xmlns="http://www.w3.org/2000/svg">
<path fill-rule="evenodd" clip-rule="evenodd" d="M372.398 1024C486.056 1024.12 565.742 1013.57 650.341 937.572C692.462 899.735 712.48 872.019 735.758 820.376C758.319 770.323 765.738 738.17 766.941 683.269C767.073 677.263 766.941 667.884 766.941 667.884C766.941 667.884 760.97 676.498 756.999 681.912C746.964 695.591 742.08 704.063 729.882 715.849C716.978 728.317 692.823 742.999 692.823 742.999C692.823 742.999 714.29 690.445 722.651 655.215C731.787 616.723 736.54 594.316 735.758 554.76C735.144 523.728 734.024 505.693 724.911 476.026C718.753 455.977 715.094 444.287 703.67 426.704C693.783 411.487 672.938 391.862 672.938 391.862C672.938 391.862 672.402 406.813 671.13 416.297C669.375 429.385 668.352 436.898 663.899 449.329C659.556 461.454 656.087 467.999 648.985 478.741C643.097 487.647 631.812 500.008 631.812 500.008C631.812 500.008 632.659 450.184 629.1 418.559C625.782 389.078 622.58 372.601 615.09 343.897C599.12 282.699 585.37 248.334 551.366 195.026C526.128 155.458 508.6 135 474.988 102.264C450.821 78.7262 436.053 66.5902 408.553 47.0596C379.248 26.2471 329.464 0 329.464 0C329.464 0 336.175 28.4907 338.503 47.0596L338.691 48.5591C342.163 76.2375 344.24 92.7861 340.31 120.816C335.446 155.519 328.969 175.678 310.482 205.433C295.432 229.658 279.901 237.805 261.673 259.733C247.76 276.47 238.678 285.051 227.326 303.625C210.201 331.643 196.594 381.907 196.594 381.907C196.594 381.907 195.839 356.818 192.526 341.182C189.33 326.094 186.566 317.726 180.324 303.625C174.496 290.46 171.332 282.661 162.246 271.498C153.478 260.724 135.582 247.968 135.582 247.968C135.582 247.968 136.771 273.934 135.582 290.503C134.419 306.705 133.305 315.84 129.707 331.68C124.684 353.789 119.481 365.736 110.493 386.379L110.273 386.884C98.0862 414.874 86.5342 428.202 72.3103 455.211C51.804 494.151 36.1179 514.539 23.0489 556.57C11.3452 594.211 5.67086 616.703 6.32715 656.12C6.94105 692.99 10.111 714.709 23.9528 748.881C40.1303 788.82 87.6763 838.928 87.6763 838.928L0 801.371C0 801.371 2.09317 811.681 4.06746 818.113C12.9271 846.977 26.7177 859.764 45.6459 883.273C74.9998 919.73 96.1807 937.228 135.582 962.459C216.073 1014 276.852 1023.9 372.398 1024ZM632.715 684.174C632.715 825.871 517.988 940.74 376.466 940.74C234.943 940.74 120.216 825.871 120.216 684.174C120.216 542.477 234.943 427.609 376.466 427.609C517.988 427.609 632.715 542.477 632.715 684.174Z" fill="url(#paint0_linear_425_19)"/>
<path fill-rule="evenodd" clip-rule="evenodd" d="M269.356 550.688C269.356 550.688 253.265 539.968 242.24 534.398C231.149 528.795 212.864 522.181 212.864 522.181C212.864 522.181 184.409 553.378 171.737 576.933C158.607 601.338 153.448 616.677 148.236 643.902C143.214 670.137 142.386 685.653 145.073 712.229C147.844 739.648 151.772 755.261 162.698 780.556C173.273 805.038 181.643 818.115 198.853 838.476C216.466 859.311 228.386 869.808 251.278 884.63C273.16 898.798 286.827 905.36 311.838 912.685C336.717 919.971 351.674 921.771 377.596 921.735C403.891 921.698 419.037 919.686 444.257 912.232C469.025 904.912 482.686 898.682 504.365 884.63C526.93 870.004 538.564 859.51 555.886 838.928C573.149 818.416 581.461 805.199 592.041 780.556C602.911 755.237 606.804 739.639 609.667 712.229C612.441 685.669 611.96 670.132 606.955 643.902C601.748 616.616 595.933 601.511 583.002 576.933C570.791 553.724 544.135 522.181 544.135 522.181C544.135 522.181 525.538 528.71 514.307 534.398C502.855 540.198 486.287 551.593 486.287 551.593C486.287 551.593 473.949 532.694 464.594 521.728C455.192 510.707 449.489 504.779 438.381 495.483C427.487 486.367 420.661 482.095 408.553 474.669C396.77 467.441 377.37 457.926 377.37 457.926C377.37 457.926 355.554 466.993 342.57 474.669C331.862 480.998 326.059 484.98 316.358 492.768C303.699 502.931 296.405 508.837 286.53 521.728C278.535 532.165 269.356 550.688 269.356 550.688ZM247.211 589.15C256.741 594.507 262.303 598.896 272.52 609.06C272.52 609.06 263.434 644.34 263.029 667.432C262.629 690.223 264.085 703.411 270.26 725.351C277.262 750.229 283.886 763.936 298.732 785.081C311.584 803.386 338.051 826.711 338.051 826.711C338.051 826.711 350.961 779.599 349.801 748.881C348.624 717.698 344.153 699.668 331.724 671.052C319.347 642.557 309.357 626.981 287.434 604.987C266.821 584.31 252.911 573.671 225.97 562.453C224.215 561.722 221.45 560.643 221.45 560.643C221.45 560.643 219.784 562.561 218.739 563.81C192.029 595.741 182.613 620.711 177.16 662.002C171.304 706.356 175.922 734.783 195.238 775.126C214.309 814.958 233.22 836.007 270.712 859.29C307.579 882.186 334.212 889.656 377.596 889.608C420.809 889.559 447.304 882.096 484.027 859.29C521.519 836.007 540.43 814.958 559.501 775.126C578.817 734.783 583.373 706.364 577.579 662.002C572.164 620.542 562.435 595.727 536 563.358C535.128 562.289 533.741 560.643 533.741 560.643C533.741 560.643 531.254 561.729 529.673 562.453C503.404 574.488 489.414 584.408 469.113 604.987C447.374 627.025 437.796 642.727 425.275 671.052C412.611 699.701 407.884 717.618 405.842 748.881C403.849 779.395 414.429 826.711 414.429 826.711C414.429 826.711 440.284 803.296 452.843 785.081C467.466 763.873 473.948 750.175 480.864 725.351C486.98 703.395 488.543 690.223 488.095 667.432C487.658 645.241 479.056 611.322 479.056 611.322C488.998 600.347 494.841 594.943 506.624 589.15C506.624 589.15 520.803 638.602 520.634 671.052C520.466 703.563 517.291 722.576 505.72 752.954C494.233 783.111 484.124 799.35 462.786 823.543C441.585 847.581 398.611 874.675 398.611 874.675C398.611 874.675 389.425 853.205 385.053 838.928C381.112 826.061 376.918 805.443 376.918 805.443C376.918 805.443 372.339 826.139 367.879 838.928C362.852 853.343 352.061 874.675 352.061 874.675C352.061 874.675 309.682 847.485 288.789 823.543C267.64 799.306 257.699 783.05 246.307 752.954C234.8 722.552 231.226 703.563 231.393 671.052C231.561 638.475 247.211 589.15 247.211 589.15ZM431.15 601.367C420.808 614.298 415.757 622.222 407.649 636.662C399.446 651.272 395.459 659.887 389.572 675.577C383.689 691.256 377.596 716.754 377.596 716.754C377.596 716.754 373.202 691.217 367.879 675.577C362.503 659.782 358.409 651.215 350.253 636.662C342.108 622.13 336.897 614.218 326.3 601.367C315.494 588.263 295.568 570.598 295.568 570.598C295.568 570.598 303.455 555.353 310.031 546.615C316.869 537.529 321.523 533.018 329.916 525.348C338.182 517.794 343.287 514.044 352.513 507.701C361.845 501.284 377.37 492.768 377.37 492.768C377.37 492.768 392.286 501.387 401.322 507.701C410.5 514.113 415.608 517.843 423.919 525.348C432.448 533.049 437.04 537.671 444.257 546.615C451.363 555.423 460.526 570.598 460.526 570.598C460.526 570.598 441.529 588.393 431.15 601.367Z" fill="url(#paint1_linear_425_19)"/>
<path d="M377.37 595.033C393.094 595.033 405.842 582.269 405.842 566.525C405.842 550.781 393.094 538.018 377.37 538.018C361.645 538.018 348.897 550.781 348.897 566.525C348.897 582.269 361.645 595.033 377.37 595.033Z" fill="#00BE63"/>
<defs>
<linearGradient id="paint0_linear_425_19" x1="383.5" y1="0" x2="383.5" y2="1024" gradientUnits="userSpaceOnUse">
<stop stop-color="#FDDE3A"/>
<stop offset="1" stop-color="#E83E39"/>
</linearGradient>
<linearGradient id="paint1_linear_425_19" x1="383.5" y1="0" x2="383.5" y2="1024" gradientUnits="userSpaceOnUse">
<stop stop-color="#00BF63"/>
<stop offset="1" stop-color="#005054"/>
</linearGradient>
</defs>
</svg>
